<svg width="241" height="194" viewBox="0 0 241 194" fill="none" xmlns="http://www.w3.org/2000/svg">
<path fill-rule="evenodd" clip-rule="evenodd" d="M199.22 62.7471C202.932 62.7471 205.94 65.7724 205.94 69.5044C205.94 73.2364 202.932 76.2617 199.22 76.2617H160.82C164.531 76.2617 167.54 79.2871 167.54 83.0191C167.54 86.751 164.531 89.7764 160.82 89.7764H181.94C185.651 89.7764 188.66 92.8018 188.66 96.5337C188.66 100.266 185.651 103.291 181.94 103.291H172.173C167.494 103.291 163.7 106.316 163.7 110.048C163.7 112.536 165.62 114.789 169.46 116.806C173.171 116.806 176.18 119.831 176.18 123.563C176.18 127.295 173.171 130.32 169.46 130.32H89.7801C86.0688 130.32 83.0601 127.295 83.0601 123.563C83.0601 119.831 86.0688 116.806 89.7801 116.806H52.3401C48.6288 116.806 45.6201 113.78 45.6201 110.048C45.6201 106.316 48.6288 103.291 52.3401 103.291H90.7401C94.4515 103.291 97.4601 100.266 97.4601 96.5337C97.4601 92.8018 94.4515 89.7764 90.7401 89.7764H66.7401C63.0288 89.7764 60.0201 86.751 60.0201 83.0191C60.0201 79.2871 63.0288 76.2617 66.7401 76.2617H105.14C101.429 76.2617 98.4201 73.2364 98.4201 69.5044C98.4201 65.7724 101.429 62.7471 105.14 62.7471H199.22ZM199.22 89.7764C202.932 89.7764 205.94 92.8018 205.94 96.5337C205.94 100.266 202.932 103.291 199.22 103.291C195.509 103.291 192.5 100.266 192.5 96.5337C192.5 92.8018 195.509 89.7764 199.22 89.7764Z" fill="#686889" fill-opacity="0.05"/>
<path fill-rule="evenodd" clip-rule="evenodd" d="M148.068 61.7819L156.961 127.239L157.759 133.806C158.016 135.922 156.517 137.849 154.411 138.11L98.1545 145.085C96.0481 145.346 94.132 143.843 93.8747 141.727L85.2601 70.8805C85.1315 69.8227 85.881 68.8593 86.9342 68.7288C86.9408 68.7279 86.9475 68.7271 86.9541 68.7264L91.6213 68.1975M95.3882 67.7385L99.7924 67.2399L95.3882 67.7385Z" fill="white"/>
<path d="M149.306 61.6119C149.213 60.9279 148.583 60.4494 147.899 60.5433C147.215 60.6371 146.736 61.2678 146.829 61.9518L149.306 61.6119ZM156.961 127.239L158.201 127.087C158.2 127.081 158.2 127.075 158.199 127.069L156.961 127.239ZM157.759 133.806L159 133.654L157.759 133.806ZM154.411 138.11L154.563 139.35L154.411 138.11ZM98.1545 145.085L98.3066 146.325L98.1545 145.085ZM93.8747 141.727L95.1154 141.574L93.8747 141.727ZM85.2601 70.8805L84.0194 71.0331L85.2601 70.8805ZM86.9541 68.7264L87.0932 69.9686L86.9541 68.7264ZM91.7604 69.4397C92.4464 69.362 92.9402 68.7428 92.8634 68.0567C92.7866 67.3706 92.1682 66.8775 91.4823 66.9552L91.7604 69.4397ZM95.2492 66.4962C94.5633 66.5739 94.0694 67.1931 94.1462 67.8791C94.2229 68.5652 94.8412 69.0585 95.5272 68.9808L95.2492 66.4962ZM99.9313 68.4821C100.617 68.4044 101.111 67.7853 101.034 67.0992C100.958 66.4131 100.339 65.9199 99.6534 65.9976L99.9313 68.4821ZM146.829 61.9518L155.722 127.409L158.199 127.069L149.306 61.6119L146.829 61.9518ZM155.72 127.392L156.518 133.959L159 133.654L158.201 127.087L155.72 127.392ZM156.518 133.959C156.693 135.394 155.676 136.693 154.259 136.869L154.563 139.35C157.359 139.004 159.34 136.449 159 133.654L156.518 133.959ZM154.259 136.869L98.0023 143.844L98.3066 146.325L154.563 139.35L154.259 136.869ZM98.0023 143.844C96.5863 144.02 95.2898 143.009 95.1154 141.574L92.6341 141.879C92.9741 144.676 95.5099 146.672 98.3066 146.325L98.0023 143.844ZM95.1154 141.574L86.5007 70.728L84.0194 71.0331L92.6341 141.879L95.1154 141.574ZM86.5007 70.728C86.4548 70.3502 86.7225 70.0146 87.0863 69.9695L86.782 67.4881C85.0395 67.7041 83.8081 69.2952 84.0194 71.0331L86.5007 70.728ZM87.0863 69.9695C87.0886 69.9692 87.0909 69.9689 87.0932 69.9686L86.8151 67.4841C86.804 67.4854 86.793 67.4867 86.782 67.4881L87.0863 69.9695ZM87.0932 69.9686L91.7604 69.4397L91.4823 66.9552L86.8151 67.4841L87.0932 69.9686ZM95.5272 68.9808L99.9313 68.4821L99.6534 65.9976L95.2492 66.4962L95.5272 68.9808Z" fill="#3F3F8D"/>
<path fill-rule="evenodd" clip-rule="evenodd" d="M145.594 65.9028L153.677 125.255L154.404 131.209C154.638 133.128 153.3 134.871 151.415 135.104L101.071 141.32C99.1858 141.553 97.4678 140.186 97.2335 138.268L89.4179 74.2616C89.2841 73.1652 90.0642 72.1666 91.1605 72.0313L97.3093 71.2721" fill="#D5D5EC"/>
<path d="M104.155 52.2666C104.155 50.7478 105.386 49.5166 106.905 49.5166H150.407C151.138 49.5166 151.84 49.8082 152.356 50.3268L165.174 63.2083C165.687 63.7237 165.975 64.4211 165.975 65.1481V125.355C165.975 126.873 164.744 128.105 163.225 128.105H106.905C105.386 128.105 104.155 126.873 104.155 125.355V52.2666Z" fill="white" stroke="#3F3F8D" stroke-width="2.5"/>
<path d="M150.905 50.5859V61.7811C150.905 63.3805 152.194 64.6771 153.785 64.6771H161.401" stroke="#3F3F8D" stroke-width="2.5" stroke-linecap="round" stroke-linejoin="round"/>
<path d="M113.78 113.91H138.74M113.78 64.6777H138.74H113.78ZM113.78 76.2617H155.06H113.78ZM113.78 88.8111H155.06H113.78ZM113.78 101.36H155.06H113.78Z" stroke="#D5D5EC" stroke-width="2.5" stroke-linecap="round" stroke-linejoin="round"/>
</svg>
