<svg width="18" height="18" viewBox="0 0 18 18" fill="none" xmlns="http://www.w3.org/2000/svg">
<path d="M9.0013 0.666504C4.40964 0.666504 0.667969 4.40817 0.667969 8.99984C0.667969 13.5915 4.40964 17.3332 9.0013 17.3332C13.593 17.3332 17.3346 13.5915 17.3346 8.99984C17.3346 4.40817 13.593 0.666504 9.0013 0.666504ZM12.9846 7.08317L8.25964 11.8082C8.14297 11.9248 7.98464 11.9915 7.81797 11.9915C7.6513 11.9915 7.49297 11.9248 7.3763 11.8082L5.01797 9.44984C4.7763 9.20817 4.7763 8.80817 5.01797 8.5665C5.25964 8.32484 5.65964 8.32484 5.9013 8.5665L7.81797 10.4832L12.1013 6.19984C12.343 5.95817 12.743 5.95817 12.9846 6.19984C13.2263 6.4415 13.2263 6.83317 12.9846 7.08317Z" fill="#39AA16"/>
</svg>
