<svg width="23" height="23" viewBox="0 0 23 23" fill="none" xmlns="http://www.w3.org/2000/svg">
<g clip-path="url(#clip0_320_11368)">
<path d="M11.5 1.1875C11.7486 1.1875 11.9871 1.28627 12.1629 1.46209C12.3387 1.6379 12.4375 1.87636 12.4375 2.125V3.11406C14.3397 3.32706 16.1131 4.18024 17.4667 5.53365C18.8202 6.88705 19.6736 8.6603 19.8869 10.5625H20.875C21.1236 10.5625 21.3621 10.6613 21.5379 10.8371C21.7137 11.0129 21.8125 11.2514 21.8125 11.5C21.8125 11.7486 21.7137 11.9871 21.5379 12.1629C21.3621 12.3387 21.1236 12.4375 20.875 12.4375H19.8859C19.6728 14.3394 18.8196 16.1125 17.4664 17.4658C16.1133 18.8192 14.3403 19.6725 12.4384 19.8859L12.4375 20.875C12.4375 21.1236 12.3387 21.3621 12.1629 21.5379C11.9871 21.7137 11.7486 21.8125 11.5 21.8125C11.2514 21.8125 11.0129 21.7137 10.8371 21.5379C10.6613 21.3621 10.5625 21.1236 10.5625 20.875V19.8859C8.66058 19.6728 6.88755 18.8196 5.53418 17.4664C4.18082 16.1133 3.32746 14.3403 3.11406 12.4384L2.125 12.4375C1.87636 12.4375 1.6379 12.3387 1.46209 12.1629C1.28627 11.9871 1.1875 11.7486 1.1875 11.5C1.1875 11.2514 1.28627 11.0129 1.46209 10.8371C1.6379 10.6613 1.87636 10.5625 2.125 10.5625H3.11406C3.32726 8.66044 4.18053 6.8873 5.53391 5.53391C6.8873 4.18053 8.66044 3.32726 10.5625 3.11406V2.125C10.5625 1.87636 10.6613 1.6379 10.8371 1.46209C11.0129 1.28627 11.2514 1.1875 11.5 1.1875ZM11.5 4.9375C10.6382 4.9375 9.78484 5.10724 8.98864 5.43704C8.19244 5.76684 7.469 6.25023 6.85961 6.85961C6.25023 7.469 5.76684 8.19244 5.43704 8.98864C5.10724 9.78484 4.9375 10.6382 4.9375 11.5C4.9375 12.3618 5.10724 13.2152 5.43704 14.0114C5.76684 14.8076 6.25023 15.531 6.85961 16.1404C7.469 16.7498 8.19244 17.2332 8.98864 17.563C9.78484 17.8928 10.6382 18.0625 11.5 18.0625C13.2405 18.0625 14.9097 17.3711 16.1404 16.1404C17.3711 14.9097 18.0625 13.2405 18.0625 11.5C18.0625 9.75952 17.3711 8.09032 16.1404 6.85961C14.9097 5.6289 13.2405 4.9375 11.5 4.9375ZM11.5 7.75C12.2417 7.75 12.9667 7.96993 13.5834 8.38199C14.2001 8.79404 14.6807 9.37971 14.9645 10.0649C15.2484 10.7502 15.3226 11.5042 15.1779 12.2316C15.0333 12.959 14.6761 13.6272 14.1517 14.1517C13.6272 14.6761 12.959 15.0333 12.2316 15.1779C11.5042 15.3226 10.7502 15.2484 10.0649 14.9645C9.37971 14.6807 8.79404 14.2001 8.38199 13.5834C7.96993 12.9667 7.75 12.2417 7.75 11.5L7.75469 11.3125C7.80279 10.3516 8.21838 9.44595 8.91549 8.78287C9.6126 8.11978 10.5379 7.75 11.5 7.75Z" fill="white"/>
</g>
<defs>
<clipPath id="clip0_320_11368">
<rect width="22.5" height="22.5" fill="white" transform="translate(0.25 0.25)"/>
</clipPath>
</defs>
</svg>
