<svg width="16" height="16" viewBox="0 0 16 16" fill="none" xmlns="http://www.w3.org/2000/svg">
<path d="M7.99996 8.71663C8.1444 8.71663 8.26396 8.66929 8.35863 8.57463C8.45285 8.4804 8.49996 8.36107 8.49996 8.21663V5.19996C8.49996 5.06663 8.45285 4.95263 8.35863 4.85796C8.26396 4.76374 8.1444 4.71663 7.99996 4.71663C7.85551 4.71663 7.73618 4.76374 7.64196 4.85796C7.54729 4.95263 7.49996 5.07218 7.49996 5.21663V8.23329C7.49996 8.36663 7.54729 8.4804 7.64196 8.57463C7.73618 8.66929 7.85551 8.71663 7.99996 8.71663ZM7.99996 11.15C8.15551 11.15 8.28329 11.1 8.38329 11C8.48329 10.9 8.53329 10.7722 8.53329 10.6166C8.53329 10.4611 8.48329 10.3333 8.38329 10.2333C8.28329 10.1333 8.15551 10.0833 7.99996 10.0833C7.8444 10.0833 7.71663 10.1333 7.61663 10.2333C7.51663 10.3333 7.46663 10.4611 7.46663 10.6166C7.46663 10.7722 7.51663 10.9 7.61663 11C7.71663 11.1 7.8444 11.15 7.99996 11.15ZM7.99996 14.3333C7.12218 14.3333 6.29729 14.1666 5.52529 13.8333C4.75285 13.5 4.08329 13.05 3.51663 12.4833C2.94996 11.9166 2.49996 11.2471 2.16663 10.4746C1.83329 9.70263 1.66663 8.87774 1.66663 7.99996C1.66663 7.12218 1.83329 6.29707 2.16663 5.52463C2.49996 4.75263 2.94996 4.08329 3.51663 3.51663C4.08329 2.94996 4.75285 2.49996 5.52529 2.16663C6.29729 1.83329 7.12218 1.66663 7.99996 1.66663C8.87774 1.66663 9.70285 1.83329 10.4753 2.16663C11.2473 2.49996 11.9166 2.94996 12.4833 3.51663C13.05 4.08329 13.5 4.75263 13.8333 5.52463C14.1666 6.29707 14.3333 7.12218 14.3333 7.99996C14.3333 8.87774 14.1666 9.70263 13.8333 10.4746C13.5 11.2471 13.05 11.9166 12.4833 12.4833C11.9166 13.05 11.2473 13.5 10.4753 13.8333C9.70285 14.1666 8.87774 14.3333 7.99996 14.3333ZM7.99996 13.3333C9.47774 13.3333 10.7362 12.814 11.7753 11.7753C12.814 10.7362 13.3333 9.47774 13.3333 7.99996C13.3333 6.52218 12.814 5.26374 11.7753 4.22463C10.7362 3.18596 9.47774 2.66663 7.99996 2.66663C6.52218 2.66663 5.26396 3.18596 4.22529 4.22463C3.18618 5.26374 2.66663 6.52218 2.66663 7.99996C2.66663 9.47774 3.18618 10.7362 4.22529 11.7753C5.26396 12.814 6.52218 13.3333 7.99996 13.3333Z" fill="#E3020E"/>
</svg>
