<svg width="23" height="23" viewBox="0 0 23 23" fill="none" xmlns="http://www.w3.org/2000/svg">
<path d="M15.4281 2.125H7.57187C4.15937 2.125 2.125 4.15937 2.125 7.57187V15.4281C2.125 18.8406 4.15937 20.875 7.57187 20.875H15.4281C18.8406 20.875 20.875 18.8406 20.875 15.4281V7.57187C20.875 4.15937 18.8406 2.125 15.4281 2.125ZM9.59688 14.2187L7.4875 16.3281C7.34687 16.4687 7.16875 16.5344 6.99063 16.5344C6.8125 16.5344 6.625 16.4687 6.49375 16.3281L5.79062 15.625C5.50937 15.3531 5.50937 14.9031 5.79062 14.6313C6.0625 14.3594 6.50312 14.3594 6.78437 14.6313L6.99063 14.8375L8.60312 13.225C8.875 12.9531 9.31563 12.9531 9.59688 13.225C9.86875 13.4969 9.86875 13.9469 9.59688 14.2187ZM9.59688 7.65625L7.4875 9.76562C7.34687 9.90625 7.16875 9.97187 6.99063 9.97187C6.8125 9.97187 6.625 9.90625 6.49375 9.76562L5.79062 9.0625C5.50937 8.79062 5.50937 8.34063 5.79062 8.06875C6.0625 7.79688 6.50312 7.79688 6.78437 8.06875L6.99063 8.275L8.60312 6.6625C8.875 6.39063 9.31563 6.39063 9.59688 6.6625C9.86875 6.93438 9.86875 7.38438 9.59688 7.65625ZM16.7125 15.8313H11.7906C11.4063 15.8313 11.0875 15.5125 11.0875 15.1281C11.0875 14.7437 11.4063 14.425 11.7906 14.425H16.7125C17.1062 14.425 17.4156 14.7437 17.4156 15.1281C17.4156 15.5125 17.1062 15.8313 16.7125 15.8313ZM16.7125 9.26875H11.7906C11.4063 9.26875 11.0875 8.95 11.0875 8.56562C11.0875 8.18125 11.4063 7.8625 11.7906 7.8625H16.7125C17.1062 7.8625 17.4156 8.18125 17.4156 8.56562C17.4156 8.95 17.1062 9.26875 16.7125 9.26875Z" fill="white"/>
</svg>
