<svg width="25" height="24" viewBox="0 0 25 24" fill="none" xmlns="http://www.w3.org/2000/svg">
<path d="M12.9399 6.43994V9.76994" stroke="white" stroke-width="1.5" stroke-miterlimit="10" stroke-linecap="round"/>
<path d="M12.9598 2C9.27984 2 6.29984 4.98 6.29984 8.66V10.76C6.29984 11.44 6.01984 12.46 5.66984 13.04L4.39984 15.16C3.61984 16.47 4.15984 17.93 5.59984 18.41C10.3798 20 15.5498 20 20.3298 18.41C21.6798 17.96 22.2598 16.38 21.5298 15.16L20.2598 13.04C19.9098 12.46 19.6298 11.43 19.6298 10.76V8.66C19.6198 5 16.6198 2 12.9598 2Z" stroke="white" stroke-width="1.5" stroke-miterlimit="10" stroke-linecap="round"/>
<path d="M16.2699 18.8198C16.2699 20.6498 14.7699 22.1498 12.9399 22.1498C12.0299 22.1498 11.1899 21.7698 10.5899 21.1698C9.98986 20.5698 9.60986 19.7298 9.60986 18.8198" stroke="white" stroke-width="1.5" stroke-miterlimit="10"/>
</svg>
