<svg width="20" height="20" viewBox="0 0 20 20" fill="none" xmlns="http://www.w3.org/2000/svg">
<path fill-rule="evenodd" clip-rule="evenodd" d="M1.5 9.92387C1.5 5.2715 5.2715 1.5 9.92387 1.5C14.5763 1.5 18.3477 5.2715 18.3477 9.92387C18.3477 14.5763 14.5763 18.3477 9.92387 18.3477C5.2715 18.3477 1.5 14.5763 1.5 9.92387ZM9.92387 0C4.44307 0 0 4.44307 0 9.92387C0 15.4047 4.44307 19.8477 9.92387 19.8477C15.4047 19.8477 19.8477 15.4047 19.8477 9.92387C19.8477 4.44307 15.4047 0 9.92387 0ZM7.92171 7.17171C7.92171 6.06595 8.81811 5.16955 9.92387 5.16955C11.0296 5.16955 11.926 6.06595 11.926 7.17171C11.926 8.04681 11.3642 8.79261 10.5793 9.06436C9.94372 9.2844 9.17387 9.88443 9.17387 10.8413V11.7586C9.17387 12.1729 9.50966 12.5086 9.92387 12.5086C10.3381 12.5086 10.6739 12.1729 10.6739 11.7586V10.8413C10.6739 10.8082 10.6852 10.7552 10.7512 10.6822C10.8212 10.6047 10.9341 10.5289 11.07 10.4818C12.4403 10.0074 13.426 8.70563 13.426 7.17171C13.426 5.23752 11.8581 3.66955 9.92387 3.66955C7.98968 3.66955 6.42171 5.23752 6.42171 7.17171C6.42171 7.58593 6.7575 7.92171 7.17171 7.92171C7.58593 7.92171 7.92171 7.58593 7.92171 7.17171ZM9.92381 15.4282C10.4305 15.4282 10.8412 15.0175 10.8412 14.5108C10.8412 14.0041 10.4305 13.5934 9.92381 13.5934C9.41715 13.5934 9.00642 14.0041 9.00642 14.5108C9.00642 15.0175 9.41715 15.4282 9.92381 15.4282Z" fill="#272757"/>
</svg>
