<svg width="16" height="16" viewBox="0 0 16 16" fill="none" xmlns="http://www.w3.org/2000/svg">
<path d="M7.01671 11.0334L11.7334 6.31671L10.9667 5.56671L7.01671 9.51671L5.01671 7.51671L4.26671 8.26671L7.01671 11.0334ZM8.00004 14.6667C7.08893 14.6667 6.22782 14.4917 5.41671 14.1417C4.6056 13.7917 3.89726 13.3139 3.29171 12.7084C2.68615 12.1028 2.20837 11.3945 1.85837 10.5834C1.50837 9.77226 1.33337 8.91115 1.33337 8.00004C1.33337 7.07782 1.50837 6.21115 1.85837 5.40004C2.20837 4.58893 2.68615 3.88337 3.29171 3.28337C3.89726 2.68337 4.6056 2.20837 5.41671 1.85837C6.22782 1.50837 7.08893 1.33337 8.00004 1.33337C8.92226 1.33337 9.78893 1.50837 10.6 1.85837C11.4112 2.20837 12.1167 2.68337 12.7167 3.28337C13.3167 3.88337 13.7917 4.58893 14.1417 5.40004C14.4917 6.21115 14.6667 7.07782 14.6667 8.00004C14.6667 8.91115 14.4917 9.77226 14.1417 10.5834C13.7917 11.3945 13.3167 12.1028 12.7167 12.7084C12.1167 13.3139 11.4112 13.7917 10.6 14.1417C9.78893 14.4917 8.92226 14.6667 8.00004 14.6667ZM8.00004 13.6667C9.57782 13.6667 10.9167 13.1139 12.0167 12.0084C13.1167 10.9028 13.6667 9.56671 13.6667 8.00004C13.6667 6.42226 13.1167 5.08337 12.0167 3.98337C10.9167 2.88337 9.57782 2.33337 8.00004 2.33337C6.43337 2.33337 5.09726 2.88337 3.99171 3.98337C2.88615 5.08337 2.33337 6.42226 2.33337 8.00004C2.33337 9.56671 2.88615 10.9028 3.99171 12.0084C5.09726 13.1139 6.43337 13.6667 8.00004 13.6667Z" fill="#39AA16"/>
</svg>
