<svg width="24" height="24" viewBox="0 0 24 24" fill="none" xmlns="http://www.w3.org/2000/svg">
<path fill-rule="evenodd" clip-rule="evenodd" d="M12.8004 2.21967C12.5075 1.92678 12.0326 1.92678 11.7397 2.21967L8.38971 5.56967C8.09682 5.86256 8.09682 6.33744 8.38971 6.63033C8.68261 6.92322 9.15748 6.92322 9.45037 6.63033L11.52 4.56068V15.25C11.52 15.6642 11.8558 16 12.27 16C12.6842 16 13.02 15.6642 13.02 15.25V4.56064L15.0897 6.63033C15.3826 6.92322 15.8575 6.92322 16.1504 6.63033C16.4433 6.33744 16.4433 5.86256 16.1504 5.56967L12.8004 2.21967ZM15.9628 9.08566C15.9983 8.67298 16.3617 8.36724 16.7743 8.40277C18.6863 8.56741 20.1837 9.15536 21.1774 10.3799C22.1542 11.5838 22.53 13.2663 22.53 15.36V15.49C22.53 17.7992 22.0722 19.611 20.8566 20.8266C19.6409 22.0422 17.8292 22.5 15.52 22.5H9.01C6.70082 22.5 4.88905 22.0422 3.67342 20.8266C2.45779 19.611 2 17.7992 2 15.49V15.36C2 13.2815 2.37071 11.6092 3.33185 10.4077C4.31033 9.18463 5.78593 8.58891 7.67039 8.41325C8.08281 8.3748 8.44832 8.67797 8.48676 9.09039C8.52521 9.50282 8.22204 9.86832 7.80961 9.90677C6.15407 10.0611 5.13467 10.5554 4.50315 11.3448C3.85429 12.1559 3.5 13.4185 3.5 15.36V15.49C3.5 17.6508 3.93721 18.9691 4.73408 19.7659C5.53095 20.5628 6.84918 21 9.01 21H15.52C17.6808 21 18.9991 20.5628 19.7959 19.7659C20.5928 18.9691 21.03 17.6508 21.03 15.49V15.36C21.03 13.4037 20.6708 12.1362 20.0126 11.3251C19.3713 10.5347 18.3337 10.0426 16.6457 9.89724C16.233 9.86171 15.9272 9.49835 15.9628 9.08566Z" fill="#272757"/>
</svg>
