<svg width="23" height="23" viewBox="0 0 23 23" fill="none" xmlns="http://www.w3.org/2000/svg">
<path d="M4.44668 4.81816H18.5092C18.6734 4.81809 18.8375 4.82851 19.0005 4.84937C18.9453 4.46167 18.8121 4.08917 18.609 3.75433C18.4059 3.41949 18.1371 3.12925 17.8188 2.9011C17.5006 2.67294 17.1394 2.51161 16.757 2.42683C16.3747 2.34204 15.9792 2.33556 15.5943 2.40776L4.0292 4.38223H4.01602C3.29007 4.52105 2.64451 4.93178 2.21118 5.53052C2.86403 5.06616 3.64553 4.81713 4.44668 4.81816Z" fill="white"/>
<path d="M18.5093 5.87488H4.44678C3.70111 5.87569 2.98621 6.17227 2.45894 6.69954C1.93167 7.22681 1.63509 7.94171 1.63428 8.68738V17.1249C1.63509 17.8705 1.93167 18.5854 2.45894 19.1127C2.98621 19.64 3.70111 19.9366 4.44678 19.9374H18.5093C19.2549 19.9366 19.9698 19.64 20.4971 19.1127C21.0244 18.5854 21.321 17.8705 21.3218 17.1249V8.68738C21.321 7.94171 21.0244 7.22681 20.4971 6.69954C19.9698 6.17227 19.2549 5.87569 18.5093 5.87488ZM16.4219 14.3124C16.1437 14.3124 15.8719 14.2299 15.6406 14.0754C15.4093 13.9209 15.2291 13.7012 15.1227 13.4443C15.0162 13.1873 14.9884 12.9046 15.0426 12.6318C15.0969 12.359 15.2308 12.1084 15.4275 11.9118C15.6242 11.7151 15.8747 11.5812 16.1475 11.5269C16.4203 11.4726 16.7031 11.5005 16.96 11.6069C17.217 11.7134 17.4366 11.8936 17.5911 12.1249C17.7456 12.3561 17.8281 12.628 17.8281 12.9061C17.8281 13.2791 17.68 13.6368 17.4162 13.9005C17.1525 14.1642 16.7948 14.3124 16.4219 14.3124Z" fill="white"/>
<path d="M1.65625 11.6514V7.27881C1.65625 6.32651 2.18359 4.72998 4.01392 4.38413C5.56738 4.09277 7.10547 4.09277 7.10547 4.09277C7.10547 4.09277 8.11621 4.7959 7.28125 4.7959C6.44629 4.7959 6.46826 5.87256 7.28125 5.87256C8.09424 5.87256 7.28125 6.90527 7.28125 6.90527L4.00732 10.6187L1.65625 11.6514Z" fill="white"/>
</svg>
