<svg width="24" height="25" viewBox="0 0 24 25" fill="none" xmlns="http://www.w3.org/2000/svg">
<path fill-rule="evenodd" clip-rule="evenodd" d="M2.75 6.565C2.75 4.78507 2.9912 3.97196 3.41908 3.54408C3.84696 3.1162 4.66007 2.875 6.44 2.875H17.55C19.3353 2.875 20.1511 3.11629 20.5802 3.54458C21.0088 3.97236 21.25 4.785 21.25 6.565V12.375H2.75V6.565ZM22.75 12.895C22.75 12.9602 22.7497 13.0248 22.7492 13.089C22.7497 13.1009 22.75 13.1129 22.75 13.125C22.75 13.1428 22.7494 13.1605 22.7482 13.178C22.7261 14.8193 22.4978 16.1257 21.6411 16.9808C20.7361 17.8841 19.3286 18.085 17.56 18.085H12.75V21.375H16.5C16.9142 21.375 17.25 21.7108 17.25 22.125C17.25 22.5392 16.9142 22.875 16.5 22.875H12.0017C12.0011 22.875 12.0006 22.875 12 22.875C11.9994 22.875 11.9989 22.875 11.9983 22.875H7.5C7.08579 22.875 6.75 22.5392 6.75 22.125C6.75 21.7108 7.08579 21.375 7.5 21.375H11.25V18.085H6.44109C4.67161 18.0899 3.26422 17.8894 2.35892 16.9858C1.50033 16.1288 1.27286 14.8185 1.25169 13.1758C1.25057 13.159 1.25 13.1421 1.25 13.125C1.25 13.1134 1.25026 13.1019 1.25078 13.0905C1.25025 13.0291 1.25 12.9673 1.25 12.905V6.565C1.25 4.79493 1.4538 3.38804 2.35842 2.48342C3.26304 1.5788 4.66993 1.375 6.44 1.375H17.55C19.3247 1.375 20.7339 1.57871 21.6398 2.48292C22.5462 3.38764 22.75 4.795 22.75 6.565V12.895ZM2.77941 13.875H21.2201C21.1433 14.9973 20.921 15.5802 20.5814 15.9192C20.1539 16.3459 19.3414 16.585 17.56 16.585L6.44 16.585L6.43789 16.585C4.65785 16.59 3.8456 16.3504 3.41858 15.9242C3.07813 15.5844 2.85572 14.9994 2.77941 13.875Z" fill="#686889"/>
</svg>
