<svg width="23" height="23" viewBox="0 0 23 23" fill="none" xmlns="http://www.w3.org/2000/svg">
<g clip-path="url(#clip0_320_11344)">
<path d="M17.1222 4.15938C17.6713 4.35286 18.1468 4.71198 18.4832 5.1872C18.8195 5.66242 19.0001 6.2303 19 6.8125V18.0625C19 18.8084 18.7037 19.5238 18.1762 20.0512C17.6488 20.5787 16.9334 20.875 16.1875 20.875H6.8125C6.06658 20.875 5.35121 20.5787 4.82376 20.0512C4.29632 19.5238 4 18.8084 4 18.0625V6.8125C3.9999 6.2303 4.18048 5.66242 4.51683 5.1872C4.85317 4.71198 5.3287 4.35286 5.87781 4.15938C5.91891 5.12557 6.33169 6.03853 7.02994 6.70761C7.72819 7.37669 8.65793 7.75015 9.625 7.75H13.375C14.3042 7.75008 15.2004 7.40517 15.8897 6.78213C16.5791 6.15909 17.0126 5.30229 17.1062 4.37781L17.1222 4.15938ZM8.69688 14.3125H8.6875C8.44855 14.3128 8.21872 14.4043 8.04497 14.5683C7.87121 14.7323 7.76665 14.9565 7.75265 15.1951C7.73865 15.4336 7.81626 15.6685 7.96962 15.8517C8.12299 16.035 8.34054 16.1527 8.57781 16.1809L8.69688 16.1875C8.94552 16.1875 9.18397 16.0887 9.35979 15.9129C9.5356 15.7371 9.63438 15.4986 9.63438 15.25C9.63438 15.0014 9.5356 14.7629 9.35979 14.5871C9.18397 14.4113 8.94552 14.3125 8.69688 14.3125ZM14.3125 14.3125H12.4375C12.1889 14.3125 11.9504 14.4113 11.7746 14.5871C11.5988 14.7629 11.5 15.0014 11.5 15.25C11.5 15.4986 11.5988 15.7371 11.7746 15.9129C11.9504 16.0887 12.1889 16.1875 12.4375 16.1875H14.3125C14.5611 16.1875 14.7996 16.0887 14.9754 15.9129C15.1512 15.7371 15.25 15.4986 15.25 15.25C15.25 15.0014 15.1512 14.7629 14.9754 14.5871C14.7996 14.4113 14.5611 14.3125 14.3125 14.3125ZM8.69688 10.5625H8.6875C8.44855 10.5628 8.21872 10.6543 8.04497 10.8183C7.87121 10.9823 7.76665 11.2065 7.75265 11.4451C7.73865 11.6836 7.81626 11.9185 7.96962 12.1017C8.12299 12.285 8.34054 12.4027 8.57781 12.4309L8.69688 12.4375C8.94552 12.4375 9.18397 12.3387 9.35979 12.1629C9.5356 11.9871 9.63438 11.7486 9.63438 11.5C9.63438 11.2514 9.5356 11.0129 9.35979 10.8371C9.18397 10.6613 8.94552 10.5625 8.69688 10.5625ZM14.3125 10.5625H12.4375C12.1889 10.5625 11.9504 10.6613 11.7746 10.8371C11.5988 11.0129 11.5 11.2514 11.5 11.5C11.5 11.7486 11.5988 11.9871 11.7746 12.1629C11.9504 12.3387 12.1889 12.4375 12.4375 12.4375H14.3125C14.5611 12.4375 14.7996 12.3387 14.9754 12.1629C15.1512 11.9871 15.25 11.7486 15.25 11.5C15.25 11.2514 15.1512 11.0129 14.9754 10.8371C14.7996 10.6613 14.5611 10.5625 14.3125 10.5625ZM13.375 2.125C13.8723 2.125 14.3492 2.32254 14.7008 2.67417C15.0525 3.02581 15.25 3.50272 15.25 4C15.25 4.49728 15.0525 4.97419 14.7008 5.32583C14.3492 5.67746 13.8723 5.875 13.375 5.875H9.625C9.12772 5.875 8.65081 5.67746 8.29918 5.32583C7.94754 4.97419 7.75 4.49728 7.75 4C7.75 3.50272 7.94754 3.02581 8.29918 2.67417C8.65081 2.32254 9.12772 2.125 9.625 2.125H13.375Z" fill="white"/>
</g>
<defs>
<clipPath id="clip0_320_11344">
<rect width="22.5" height="22.5" fill="white" transform="translate(0.25 0.25)"/>
</clipPath>
</defs>
</svg>
