<svg width="23" height="23" viewBox="0 0 23 23" fill="none" xmlns="http://www.w3.org/2000/svg">
<path d="M16.7125 2.125H6.25937C3.98125 2.125 2.125 3.98125 2.125 6.25937V12.3531V12.5406C2.125 14.8281 3.98125 16.675 6.25937 16.675H9.85937C10.375 16.675 10.7969 17.0969 10.7969 17.6125V18.5219C10.7969 19.0375 10.375 19.4594 9.85937 19.4594H7.59062C7.20625 19.4594 6.8875 19.7781 6.8875 20.1625C6.8875 20.5469 7.19687 20.875 7.59062 20.875H15.4187C15.8031 20.875 16.1219 20.5562 16.1219 20.1719C16.1219 19.7875 15.8031 19.4688 15.4187 19.4688H13.15C12.6344 19.4688 12.2125 19.0469 12.2125 18.5312V17.6219C12.2125 17.1063 12.6344 16.6844 13.15 16.6844H16.7219C19.0094 16.6844 20.8562 14.8281 20.8562 12.55V12.3625V6.26875C20.8469 3.98125 18.9906 2.125 16.7125 2.125Z" fill="white"/>
</svg>
